# xmcd
#
# Track frame offsets:
#	150
#	20393
#	36516
#	48675
#	69484
#	87854
#	111019
#	138229
#	159250
#	183366
#	198846
#	213840
#	235961
#	256371
#	270336
#	295367
#	314087
#	331078
#
# Disc length: 4674 seconds
#
# Revision: 0
# Processed by: cddbd v1.5.2PL0 Copyright (c) Steve Scherf et al.
# Submitted via: audiograbber 1.83.01
#
DISCID=01124012
DTITLE=сборник - Шансон vol.2 Серьёзная песня
DYEAR=2006
DGENRE=Shanson
TTITLE0=М Круг - Владимирский централ
TTITLE1=И Кучин - Не уходи
TTITLE2=А Розембаум - Одинокий волк
TTITLE3=Лесоповал - Я куплю тебе дом
TTITLE4=С Наговицын - Городские встречи
TTITLE5=Е Кемеровский - Стоянка пять минут
TTITLE6=Г Кричевский - Привокзальная
TTITLE7=К Огонёк - Я ревную тебя
TTITLE8=А Полотно - Колечко
TTITLE9=Ф Карманов - Денежки
TTITLE10=А Дюмин - Одна у меня
TTITLE11=Жека - Осенний лист
TTITLE12=О Алябин - Красная смородина
TTITLE13=Г Жаров - Снизу кедра
TTITLE14=С Север - Лагеря, лагеря
TTITLE15=А Степин - Долюшка
TTITLE16=Бутырка - Тает снег
TTITLE17=В Черняков - За друзей
EXTD=
EXTT0=
EXTT1=
EXTT2=
EXTT3=
EXTT4=
EXTT5=
EXTT6=
EXTT7=
EXTT8=
EXTT9=
EXTT10=
EXTT11=
EXTT12=
EXTT13=
EXTT14=
EXTT15=
EXTT16=
EXTT17=
PLAYORDER=
